<svg width="24" height="24" viewBox="0 0 24 24" fill="none" xmlns="http://www.w3.org/2000/svg">
<path d="M12 9.00375C12.5933 9.00375 13.1734 9.1797 13.6667 9.50934C14.1601 9.83899 14.5446 10.3075 14.7716 10.8557C14.9987 11.4039 15.0581 12.0071 14.9424 12.589C14.8266 13.171 14.5409 13.7055 14.1213 14.1251C13.7018 14.5446 13.1672 14.8303 12.5853 14.9461C12.0033 15.0619 11.4001 15.0024 10.852 14.7754C10.3038 14.5483 9.83524 14.1638 9.50559 13.6705C9.17595 13.1771 9 12.5971 9 12.0037C9.00099 11.2084 9.31738 10.4459 9.87978 9.88352C10.4422 9.32113 11.2047 9.00474 12 9.00375ZM12 7.50375C11.11 7.50375 10.24 7.76767 9.49994 8.26214C8.75991 8.7566 8.18314 9.45941 7.84254 10.2817C7.50195 11.1039 7.41283 12.0087 7.58647 12.8817C7.7601 13.7546 8.18869 14.5564 8.81802 15.1857C9.44736 15.8151 10.2492 16.2436 11.1221 16.4173C11.995 16.5909 12.8998 16.5018 13.7221 16.1612C14.5443 15.8206 15.2471 15.2438 15.7416 14.5038C16.2361 13.7638 16.5 12.8938 16.5 12.0037C16.5 10.8103 16.0259 9.66568 15.182 8.82177C14.3381 7.97786 13.1935 7.50375 12 7.50375Z" fill="white"/>
<path d="M4.04553 5.10975L5.10603 4.0485L7.73553 6.678L6.67503 7.7385L4.04553 5.10975Z" fill="white"/>
<path d="M1.5 11.2537H5.25V12.7537H1.5V11.2537Z" fill="white"/>
<path d="M4.04553 18.8977L6.67503 16.2682L7.73553 17.3295L5.10603 19.9582L4.04553 18.8977Z" fill="white"/>
<path d="M11.25 18.7538H12.75V22.5038H11.25V18.7538Z" fill="white"/>
<path d="M16.2653 17.3295L17.3258 16.2682L19.9553 18.8977L18.8948 19.9582L16.2653 17.3295Z" fill="white"/>
<path d="M18.75 11.2537H22.5V12.7537H18.75V11.2537Z" fill="white"/>
<path d="M16.2653 6.678L18.8948 4.0485L19.9553 5.10975L17.3258 7.7385L16.2653 6.678Z" fill="white"/>
<path d="M11.25 1.50375H12.75V5.25375H11.25V1.50375Z" fill="white"/>
</svg>
